Patient4_TMGait_0pt7_02_right_14_EMG.mot
version=1
nRows=20
nColumns=33
inDegrees=no
endheader
time	1LAddLong	2LGlutMax	3LGlutMed	4LIliopsoas	5LSemiMemb	6LBicFemLong	7LRecFem	8LVastMed	9LVastLat	10LGasMed	11LTibAnt	12lTibPost	13LPeroneusLong	14LSol	15LExtDigLong	16LFlexDigLong	17RAddLong	18RGlutMax	19RGlutMed	20RIliopsoas	21RSemiMemb	22RBicFemLong	23RRecFem	24RVastMed	25RVastLat	26RGasMed	27RTibAnt	28RTibPost	29RPeroneusLong	30RSol	31RExtDigLong	32RFlexDigLong
16.34	-0.019073	0.046997	-0.078125	-0.002899	0.031433	0.010681	0.099792	0.009918	0.00351	-0.012512	0.13702	0.003662	-0.057373	-0.103	-0.071716	0.00061	0.001068	-0.12802	0.057831	-0.058899	-0.24887	-0.023956	0.077972	-0.11063	-0.012817	0	0.067139	-0.003052	0.31021	-0.015411	-0.002899	-0.023193
16.341	-0.002899	0.077362	-0.08728	0.001984	0.063324	0.01358	0.12039	0.007019	0.064392	0.022583	-0.010071	0.005951	-0.16571	-0.11078	0.15686	-0.011597	-0.00061	-0.14328	0.16007	-0.009918	0.082855	0.032043	-0.054016	-0.068359	-0.00061	0.000153	0.04776	-0.003204	-0.055695	-0.020599	0.001526	-0.010223
16.342	0.005798	0.103	-0.046997	0.00061	0.063629	0.043335	0.20493	-0.02121	0.11246	0.024261	-0.088959	0.000458	-0.12451	-0.18555	0.15381	0.009613	0.005493	-0.12589	0.068054	-0.003967	0.35172	0.26886	-0.04776	-0.070496	0.002899	-0.002289	0.050812	-0.005035	-0.31693	-0.021515	0.001373	-0.013885
16.343	0.011292	0.1033	-0.060577	0.000153	0.017395	0.031128	0.28595	-0.03952	0.06424	0.034637	-0.073547	0.001984	0.081482	-0.19928	0.13351	0.002289	0.016174	-0.1413	-0.088043	-0.12802	0.22125	0.16327	-0.031128	-0.029755	0.006866	0.005951	0.043488	-0.003357	-0.17685	-0.02243	-0.000458	-0.00946
16.344	0.024872	0.10162	-0.048065	0.015717	-0.055084	-0.040894	0.27802	-0.02594	0.036011	0.028839	-0.019989	0.00824	0.088196	-0.12375	0.19486	0.00885	0.047302	-0.1474	-0.17349	-0.33447	0.11673	0.00885	-0.014038	-0.059357	0.001221	-0.00351	0.02594	-0.003815	0.002289	-0.012512	-0.003357	-0.003052
16.345	0.020752	0.078125	-0.075073	0.039063	0.01236	-0.050812	0.24002	-0.013275	0.004272	0.047302	0.11231	0.004883	0.012207	-0.069733	0.18829	0.004272	0.072937	-0.11856	-0.34271	-0.33951	-0.031586	-0.085449	-0.034943	-0.095673	0.007629	-0.010376	0.06485	-0.002289	-0.069427	-0.048676	-0.001373	-0.000916
16.346	0.026398	0.11566	-0.091553	0.010223	0.1004	-0.039978	0.19318	-0.01709	0.003815	0.028076	0.19028	0.005188	-0.10468	-0.079651	0.17303	0.007782	0.10529	-0.10361	-0.504	-0.20371	-0.094299	-0.017548	-0.050201	-0.13779	0.009308	-0.011749	0.046234	-0.003815	-0.051727	-0.043793	-0.002441	-0.002747
16.347	0.029449	0.1387	-0.11566	0.00885	0.081024	-0.036774	0.079956	0.000305	0.02243	0.016785	0.061188	0.011292	0.00061	-0.065613	0.031128	-0.001526	0.027618	-0.082855	-0.39703	0.00885	-0.018311	0.095825	-0.10834	-0.071411	0.002899	-0.010376	0.081024	-0.00412	0.036926	-0.035553	-0.003662	0.00885
16.348	0.021667	0.15717	-0.075531	0.032043	0.070343	-0.015259	0.072937	-0.010681	0.030518	0.023804	0.024719	0.010223	0.039368	-0.063934	-0.070801	0.001526	-0.048065	-0.064087	-0.26367	0.18356	0.001221	0.19959	-0.11856	-0.070343	0.009918	-0.005188	0.089874	-0.005493	0.20554	0.018768	-0.001373	-0.001068
16.349	0.009918	0.14023	-0.079346	0.002594	0.048828	0.024109	0.16098	0.004272	0.046844	0.029297	-0.00412	0.004425	0.007782	-0.023499	-0.079803	-0.002136	-0.063171	-0.14648	-0.32562	0.30563	0.14236	0.22553	-0.22003	0.049744	0.005646	-0.009308	0.093384	-0.003357	0.16434	0.07019	-0.005493	0.001373
16.35	0.00351	0.10284	-0.032349	0.016174	0.033722	0.032349	0.20493	0.044403	-0.010223	0.015564	0.000305	0.000763	-0.026398	-0.04425	-0.070038	0.001373	-0.033722	-0.13382	-0.24231	0.30304	0.20416	0.08667	-0.14069	0.10117	0.01709	-0.001678	0.093994	-0.002289	0.38757	-0.00473	0.001526	-0.002899
16.351	-0.00824	0.092773	-0.068359	0.024719	0.029449	0.055389	0.18265	0.016479	-0.024872	0.013275	-0.01236	0.00473	-0.028076	-0.046692	-0.057678	-0.003357	-0.010986	-0.16174	0.043335	0.19608	0.089111	-0.003357	-0.086365	0.05127	0.009918	-0.00061	0.04364	-0.006561	-0.011902	-0.060883	-0.00061	-0.003357
16.352	-0.021362	0.11368	-0.084229	0.025787	0.032806	0.036011	0.24307	0.001678	-0.11841	0.025177	0.03479	0.00061	-0.007782	-0.03067	-0.041504	-0.004425	-0.011902	-0.14297	0.58197	0.14572	0.028839	-0.073395	-0.017242	0.02594	0.010376	0.001526	0.002441	-0.000763	-0.23209	-0.01297	-0.004578	-0.002136
16.353	-0.008392	0.1297	-0.077667	0.011597	0.014954	0.040436	0.21133	-0.002747	-0.17029	0.009613	0.025635	0.007629	-0.03067	0.002289	0.005188	-0.002594	-0.006256	-0.18433	0.21408	0.061493	0.052185	-0.084534	-0.0177	-0.036469	-0.001068	0	-0.11185	-0.003662	-0.3125	-0.01236	-0.008698	0.001068
16.354	-0.00885	0.15518	0.005798	0.012665	-0.012207	0.003052	0.11124	0.010376	-0.1294	0.044556	0.077515	-0.00412	-0.073242	-0.002289	0.059052	-0.009003	-0.019379	-0.20355	-0.033112	-0.0177	0.041962	-0.072479	0.003662	-0.019226	-0.008698	-0.003357	-0.064392	-0.001373	-0.20737	-0.046234	-0.006256	-0.001678
16.355	-0.003662	0.15381	0.004578	-0.001373	-0.004578	-0.027618	0.025482	0.003815	0.042572	0.053864	0.15015	0.005646	-0.10696	0.013885	0.22339	-0.00412	-0.016785	-0.15839	-0.28198	-0.11887	0.015106	-0.069275	-0.004425	-0.034332	-0.009766	-0.011902	-0.020294	-0.005798	0.018158	0.004425	-0.006866	-0.013275
16.356	0.009308	0.14664	0.044098	0.002289	0.007019	-0.025024	0.007477	-0.015259	0.15915	0.058899	0.15549	0.005646	-0.10346	0.067444	0	-0.006256	-0.011139	-0.079956	-0.20035	-0.038605	-0.039215	-0.055237	-0.020447	-0.026093	0.001221	-0.013428	-0.002136	-0.005188	0.10223	-0.022125	-0.003204	-0.015564
16.357	0.000305	0.12116	-0.037994	0.019226	0.01709	-0.00412	0.029602	-0.025024	0.15717	0.073395	0.11963	0.001831	-0.048523	0.094452	-0.082092	-0.010681	-0.000916	-0.1149	0.16586	0.066223	-0.078125	-0.078278	0.001831	0.005951	0.001373	-0.015106	0.016937	-0.00412	0.12146	-0.035706	-0.005035	-0.00824
16.358	-0.009766	0.11749	-0.066071	0.007477	0.000763	0.029449	0.064087	-0.006104	0.11932	0.00351	-0.084839	0.00412	0.11887	0.19684	0.15366	0.005951	0.003967	-0.14069	0.25375	0.11276	-0.09201	-0.06485	0.023193	-0.048981	0.003204	-0.024109	0.011292	-0.002594	0.32669	-0.027313	-0.003357	-0.011902
16.359	-0.004883	0.093536	-0.13733	0.010376	0.001678	0.029602	0.089417	-0.00824	0.14343	-0.046234	-0.19028	-0.001984	0.2359	0.2713	0.81573	0.008698	0.011749	-0.14023	-0.021973	0.046692	-0.049896	-0.027466	0.010529	-0.001373	0.02594	-0.026703	0.010681	-0.007782	0.45441	-0.027466	-0.003967	-0.010986
